<svg class="logo" xmlns="http://www.w3.org/2000/svg" width="124.72" height="37.8" viewBox="0 0 124.72 37.8">
  <g fill="#231f20">
    <path class="letter f" d="M13.39 8.16c.166.073.326.164.493.228.583.23 1.146.267 1.495-.41.325-.636.106-1.2-.325-1.683-.597-.668-1.366-.97-2.178-1.153-3.35-.762-5.617 1.216-5.62 4.896 0 .66-.036 1.32.008 1.976.058.89-.072 1.51-1.097 1.496-.585-.008-1.023.344-1.01 1.086.014.688.434.982.976.99.756.016.977.477 1.028 1.178.19 2.63.132 5.257-.094 7.88-.042.48-.264.79-.74.826-.617.05-1.043.358-1 1.085.047.83.63.936 1.24.938 1.923.003 3.85.008 5.775-.01.58-.005 1.11-.164 1.11-.95 0-.72-.41-1.063-1.03-1.044-.99.02-1.18-.6-1.18-1.5.02-1.98 0-3.95 0-5.93 0-.37.03-.81.03-1.31 0-.71.28-1.16 1.03-1.18l.79-.01c.47-.06.82-.36.83-.98.02-.68-.35-1.03-.87-1.08-.04-.01-.73-.01-.78-.01-.86 0-1.01-.52-1.01-.93 0-.97-.02-1.94.01-2.91.05-1.71.68-2.14 2.15-1.52"/>
    <path class="letter y" d="M28.86 13.445c-1.213-.033-2.425-.032-3.636.014-.52.02-.987.25-1.043.94-.04.6.27.95.77 1.08.62.15.72.53.52 1.12-.61 1.77-1.09 3.22-1.7 5-1.31-2.15-1.75-3.2-2.42-4.98-.18-.51-.27-.92.28-1.06.61-.16 1.11-.47 1.01-1.25-.12-.88-.79-.92-1.4-.9-2.02.07-3.37-.01-5.46.12-.5.03-.84.59-.84 1.09 0 .52.44 1.05 1.05 1.1.92.09 1.09.57 1.37 1.24 1.28 3.02 5.37 10.12 5.95 11.33.64 1.35.44 3.67-1.84 3.67-1.93 0-2.26-2.11-1.06-2.96.39-.27.71-.53.62-1.09-.09-.54-.46-.75-.88-.9-1.68-.6-3.55.49-3.76 2.7-.21 2.21 1.09 4.99 5.37 4.99 5.34 0 7.54-5.19 3.63-11.24.28-.83 1.23-3.22 2.36-6.33.28-.77.55-1.52 1.41-1.76.51-.14.8-.5.74-1.11-.07-.62-.51-.84-.99-.86"/>
    <path class="letter n" d="M44.898 25.52c-.705-.157-.893-.662-.888-1.36.013-1.16.006-2.326.006-3.488h-.025c0-1.085.04-2.17 0-3.254-.12-3.017-1.77-4.573-4.55-4.345-.86.07-1.7.233-2.43.78-.39.292-.65.366-.89-.217-.26-.63-.83-.583-1.3-.39-1.27.514-2.52 1.078-3.77 1.64-.46.208-.77.575-.72 1.163.06.56.44.79.89.85.78.1.98.58.98 1.36-.03 1.89-.02 3.79 0 5.69.01.84-.19 1.42-1.06 1.56-.51.08-.85.46-.79 1.05.06.66.49.9 1.05.9 1.86 0 3.6.01 5.45 0 .49 0 .95-.12 1.05-.76.1-.65-.22-1.06-.78-1.19-.69-.17-.8-.64-.8-1.34.02-1.82.01-3.64.03-5.47.01-.71.18-1.39.61-1.95.54-.7 1.22-1.11 2.07-.81.79.27.89 1.03.9 1.8.01 2.13 0 4.26.02 6.39.01.7-.04 1.19-.73 1.38-.55.16-.84.58-.71 1.23.13.63.597.7 1.08.7 1.75 0 3.37.01 5.12 0 .53 0 1.02-.11 1.09-.83.07-.68-.292-1.02-.84-1.14"/>
    <g class="letter o">
      <path d="M50.308 11.225c1.294-.006 2.248-1.05 2.22-2.426-.028-1.27-1.06-2.34-2.236-2.34-1.206 0-2.167 1.04-2.177 2.36-.012 1.46.855 2.41 2.193 2.4"/>
      <path d="M56.096 11.214c1.22-.015 2.154-1.034 2.177-2.37.02-1.312-1.036-2.432-2.268-2.4-1.224.03-2.22 1.174-2.182 2.505.04 1.28 1.04 2.28 2.273 2.26"/>
      <path d="M55.307 23.672c-.382 1.008-1.062 1.68-2.09 1.722-1.037.044-1.78-.6-2.17-1.59-.855-2.167-.833-4.38-.003-6.548.378-.986 1.078-1.64 2.143-1.617 1.112.02 1.77.76 2.15 1.79.358.97.51 2.01.53 3.06-.015 1.09-.172 2.16-.56 3.17zm-2.025-10.62c-4.235-.04-7.14 2.983-7.124 7.414.017 4.512 2.765 7.477 6.933 7.478 4.28 0 7-2.85 7.01-7.343.01-4.59-2.62-7.51-6.81-7.54"/>
    </g>
    <path class="letter g1" d="M68.986 22.633c-1.144-.786-2.306-1.567-3.18-2.72-.926-1.212-.818-2.865.202-3.74.992-.853 2.54-.7 3.278.323.777 1.077.51 2.456-.703 3.515-.352.31-.666.61-.54 1.16.122.52.525.7.947.84.455.15.915.15 1.374.04 2.81-.67 3.985-4.2 2.183-6.63-.323-.43-.46-.69-.008-1.12.38-.37.51-.92.45-1.49-.09-.73-.49-1.18-1.16-1.32-.58-.12-1.21-.01-1.35.62-.29 1.28-.95 1.46-1.97 1.11-.33-.11-.71-.07-1.07-.1-2.64-.06-4.8 1.31-5.63 3.58-.82 2.24-.19 4.57 1.8 6.57.94.95 2.03 1.7 3.09 2.49.94.7 1.9 1.38 2.64 2.34.94 1.22.63 2.77-.67 3.51-1.01.57-2 .51-2.97-.04-1.28-.72-1.33-1.9-.13-2.74.38-.27.71-.52.61-1.09-.09-.53-.46-.75-.88-.9-1.69-.6-3.56.75-3.76 2.7-.18 1.68.52 3.15 2.04 4 2.14 1.2 4.39 1.28 6.64.4 3.72-1.46 4.48-6.22 1.48-9.06-.87-.81-1.79-1.53-2.75-2.2"/>
    <path class="letter g2" d="M81.048 21.387c-.796-.654-1.614-1.296-1.973-2.38-.42-1.283.05-2.572 1.14-3.14 1.048-.542 2.366-.17 2.94.832.605 1.07.37 2.27-.657 3.17-.394.34-.874.63-.7 1.29.192.72.793.87 1.363.91 1.49.1 2.64-.61 3.42-1.95.82-1.4.89-2.89.03-4.27-.45-.73-.77-1.17-.09-2 .57-.7.26-1.86-.42-2.22-.69-.37-1.6-.47-1.83.43-.37 1.39-1.1 1.36-2.08 1.09-.31-.08-.64-.05-.96-.08-2.65-.06-4.79 1.3-5.62 3.58-.81 2.22-.16 4.57 1.82 6.58.92.93 1.97 1.66 3 2.42.91.67 1.85 1.33 2.6 2.23.94 1.13.83 2.67-.21 3.46-1 .76-2.42.79-3.44.08-1.11-.78-1.14-1.84-.04-2.64.43-.31.76-.61.62-1.21-.13-.57-.57-.76-1.03-.88-1.66-.43-3.37.9-3.55 2.75-.17 1.72.5 3.17 2.03 4 2.37 1.28 4.83 1.36 7.22.11 3.21-1.68 3.66-6.14.99-8.71-1.39-1.35-3.04-2.3-4.52-3.51"/>
    <path class="letter e" d="M98.698 24.086c-.354.18-.698.39-1.057.555-2.75 1.26-4.76-.1-4.95-3.34-.01-.27 0-.54 0-.81.02-1.56.11-3.12 1.23-4.3.73-.75 1.55-.72 2.17.02.63.76.56 1.78-.22 2.44-.59.5-1.23.93-1.86 1.37-.61.43-1.14.93-.65 1.79.46.8 1.13.7 1.78.3 1.43-.87 2.86-1.76 4.27-2.65.84-.52 1.16-1.31 1.03-2.35-.13-1.09-.63-1.95-1.43-2.62-1.71-1.46-3.67-1.65-5.68-1.1-3.52.96-5.54 4.9-4.71 9.02.8 3.97 4.01 6.23 7.82 5.48 1.32-.26 2.57-.7 3.56-1.74.51-.53.74-1.21.29-1.87-.41-.62-1.01-.42-1.55-.14"/>
    <path class="letter l" d="M108.625 25.534c-1.055-.092-1.14-.827-1.137-1.71.007-2.867.002-5.732.002-8.597h-.003c0-2.945.013-5.888-.006-8.833-.01-1.23-.53-1.62-1.59-1.165-1.19.51-2.35 1.1-3.52 1.67-.45.21-.78.56-.74 1.15.04.55.39.85.83.91.79.11 1 .67 1 1.38.03 4.64.16 9.29-.07 13.93-.03.7-.22 1.17-.98 1.21-.53.03-.81.44-.8 1.04.02.63.4.91.91.92 2 .02 4 .02 6 0 .47-.01.83-.28.87-.84.05-.58-.22-1.05-.74-1.09"/>
    <g class="letter i">
      <path d="M114.527 11.228c1.424-.004 2.424-1.09 2.416-2.62-.003-1.524-1.024-2.65-2.407-2.662-1.434-.01-2.43 1.045-2.444 2.588-.017 1.66.92 2.698 2.435 2.694"/>
      <path d="M117.624 25.492c-.76-.052-.942-.552-.94-1.255.006-1.586.003-3.173.003-4.762h-.015c0-1.625.04-3.253-.013-4.876-.05-1.43-.51-1.75-1.71-1.28-1.1.43-2.19.93-3.29 1.38-.53.22-.99.51-.98 1.21.01.68.52.87 1.02.98.58.13.85.47.85 1.12-.02 2.09-.01 4.18-.01 6.27 0 .66-.23 1.11-.91 1.18-.57.06-.95.41-.92 1.06.03.74.54.93 1.13.94 1.85.01 3.7.01 5.56 0 .58 0 1.09-.19 1.13-.94.03-.65-.35-1.02-.92-1.06"/>
    </g>
  </g>
</svg>
